<!DOCTYPE svg PUBLIC "-//W3C//DTD SVG 20010904//EN" "http://www.w3.org/TR/2001/REC-SVG-20010904/DTD/svg10.dtd">
<svg version="1.0" xmlns="http://www.w3.org/2000/svg" width="100px" height="100px" viewBox="0 0 1000 1000" preserveAspectRatio="xMidYMid meet">
<g id="layer1" fill="#ffffff" stroke="none">
 <path d="M0 467 l0 -467 500 0 500 0 0 450 c0 248 -2 450 -4 450 -2 0 -20 -22 -40 -48 -57 -78 -176 -152 -293 -182 -24 -6 -43 -16 -42 -23 0 -7 19 -25 42 -42 90 -65 121 -211 68 -318 -47 -96 -167 -152 -276 -130 -182 39 -262 243 -155 398 17 24 44 52 60 62 41 24 38 40 -12 53 -131 33 -247 110 -307 202 l-41 63 0 -468z"/>
 </g>
<g id="layer2" fill="#7f7f7f" stroke="none">
 <path d="M0 960 c0 -47 14 -82 53 -133 53 -68 196 -157 281 -172 l33 -7 -46 -46 c-66 -66 -86 -112 -86 -197 0 -83 20 -131 80 -190 59 -60 107 -80 190 -80 85 0 131 20 196 85 108 108 105 265 -6 377 l-52 51 33 7 c93 17 240 112 293 189 26 37 31 54 31 100 l0 56 -500 0 -500 0 0 -40z"/>
 </g>

</svg>